{
	"asset":{
		"generator":"Khronos glTF Blender I/O v4.0.44",
		"version":"2.0"
	},
	"scene":0,
	"scenes":[
		{
			"name":"Scene",
			"nodes":[
				11,
				15,
				16
			]
		}
	],
	"nodes":[
		{
			"mesh":0,
			"name":"Object006_Material #294_0",
			"scale":[
				0.39222580194473267,
				0.39222583174705505,
				0.39222583174705505
			],
			"translation":[
				-361.2947082519531,
				239.1872100830078,
				3.705254554748535
			]
		},
		{
			"mesh":1,
			"name":"Object006_Material #294_0.001",
			"scale":[
				0.39222580194473267,
				0.39222583174705505,
				0.39222583174705505
			],
			"translation":[
				-73.08352661132812,
				243.86090087890625,
				3.7052550315856934
			]
		},
		{
			"mesh":2,
			"name":"Object006_Material #294_0.002",
			"scale":[
				0.39222580194473267,
				0.39222583174705505,
				0.39222583174705505
			],
			"translation":[
				240.98870849609375,
				243.86090087890625,
				3.7052550315856934
			]
		},
		{
			"children":[
				0,
				1,
				2
			],
			"name":"Object006",
			"rotation":[
				-0.70710688829422,
				0,
				0,
				0.7071066498756409
			],
			"translation":[
				0,
				-4.760246276855469,
				0
			]
		},
		{
			"mesh":3,
			"name":"Object007_Material #295_0",
			"scale":[
				0.39222580194473267,
				0.39222583174705505,
				0.39222583174705505
			],
			"translation":[
				-361.2947082519531,
				239.1872100830078,
				3.705258369445801
			]
		},
		{
			"mesh":4,
			"name":"Object007_Material #295_0.001",
			"scale":[
				0.39222580194473267,
				0.39222583174705505,
				0.39222583174705505
			],
			"translation":[
				-73.08352661132812,
				243.86090087890625,
				3.705258846282959
			]
		},
		{
			"mesh":5,
			"name":"Object007_Material #295_0.002",
			"scale":[
				0.39222580194473267,
				0.39222583174705505,
				0.39222583174705505
			],
			"translation":[
				240.98870849609375,
				243.86090087890625,
				3.705258846282959
			]
		},
		{
			"children":[
				4,
				5,
				6
			],
			"name":"Object007",
			"rotation":[
				-0.70710688829422,
				0,
				0,
				0.7071066498756409
			],
			"translation":[
				0,
				-4.760246276855469,
				0
			]
		},
		{
			"name":"Plane001",
			"rotation":[
				-0.70710688829422,
				0,
				0,
				0.7071066498756409
			],
			"translation":[
				2.13043212890625,
				0,
				-46.352294921875
			]
		},
		{
			"children":[
				3,
				7,
				8
			],
			"name":"RootNode"
		},
		{
			"children":[
				9
			],
			"name":"oldcar.FBX",
			"rotation":[
				0.70710688829422,
				0,
				0,
				0.7071066498756409
			]
		},
		{
			"children":[
				10
			],
			"name":"Sketchfab_model",
			"rotation":[
				-0.70710688829422,
				0,
				0,
				0.7071066498756409
			]
		},
		{
			"mesh":6,
			"name":"defaultMaterial",
			"translation":[
				-187.71621704101562,
				-845.4859008789062,
				-19.834457397460938
			]
		},
		{
			"children":[
				12
			],
			"name":"ussr_statue_lenin_classic_bronze_1952_a",
			"rotation":[
				-0.70710688829422,
				0,
				0,
				0.7071066498756409
			]
		},
		{
			"children":[
				13
			],
			"name":"Collada visual scene group",
			"rotation":[
				0.70710688829422,
				0,
				0,
				0.7071066498756409
			],
			"translation":[
				0,
				5.478386447066441e-05,
				2.6529451133683324e-06
			]
		},
		{
			"children":[
				14
			],
			"name":"Sketchfab_model.001",
			"rotation":[
				-0.70710688829422,
				0,
				0,
				0.7071066498756409
			],
			"translation":[
				26.464561462402344,
				20.634979248046875,
				-537.6207885742188
			]
		},
		{
			"mesh":7,
			"name":"Plane",
			"scale":[
				500,
				500,
				500
			]
		}
	],
	"materials":[
		{
			"doubleSided":true,
			"name":"Material_294",
			"normalTexture":{
				"index":0
			},
			"occlusionTexture":{
				"index":1
			},
			"pbrMetallicRoughness":{
				"baseColorTexture":{
					"index":2
				},
				"metallicRoughnessTexture":{
					"index":1
				}
			}
		},
		{
			"alphaMode":"BLEND",
			"doubleSided":true,
			"name":"Material_295",
			"normalTexture":{
				"index":3
			},
			"occlusionTexture":{
				"index":4
			},
			"pbrMetallicRoughness":{
				"baseColorTexture":{
					"index":5
				},
				"metallicRoughnessTexture":{
					"index":4
				}
			}
		},
		{
			"doubleSided":true,
			"name":"ussr_statue_lenin_classic_bronze_1952_a",
			"normalTexture":{
				"index":6
			},
			"occlusionTexture":{
				"index":7
			},
			"pbrMetallicRoughness":{
				"baseColorTexture":{
					"index":8
				},
				"metallicRoughnessTexture":{
					"index":7
				}
			}
		},
		{
			"doubleSided":true,
			"name":"Material.001",
			"pbrMetallicRoughness":{
				"baseColorFactor":[
					0.10753250122070312,
					0.14457100629806519,
					0.14325329661369324,
					1
				],
				"metallicFactor":0
			}
		}
	],
	"meshes":[
		{
			"name":"Object006_Material #294_0",
			"primitives":[
				{
					"attributes":{
						"POSITION":0,
						"NORMAL":1,
						"TEXCOORD_0":2,
						"TANGENT":3
					},
					"indices":4,
					"material":0
				}
			]
		},
		{
			"name":"Object006_Material #294_0.001",
			"primitives":[
				{
					"attributes":{
						"POSITION":5,
						"NORMAL":6,
						"TEXCOORD_0":7,
						"TANGENT":8
					},
					"indices":4,
					"material":0
				}
			]
		},
		{
			"name":"Object006_Material #294_0.002",
			"primitives":[
				{
					"attributes":{
						"POSITION":9,
						"NORMAL":10,
						"TEXCOORD_0":11,
						"TANGENT":12
					},
					"indices":4,
					"material":0
				}
			]
		},
		{
			"name":"Object007_Material #295_0",
			"primitives":[
				{
					"attributes":{
						"POSITION":13,
						"NORMAL":14,
						"TEXCOORD_0":15,
						"TEXCOORD_1":16,
						"TANGENT":17
					},
					"indices":18,
					"material":1
				}
			]
		},
		{
			"name":"Object007_Material #295_0.001",
			"primitives":[
				{
					"attributes":{
						"POSITION":19,
						"NORMAL":20,
						"TEXCOORD_0":21,
						"TEXCOORD_1":22,
						"TANGENT":23
					},
					"indices":18,
					"material":1
				}
			]
		},
		{
			"name":"Object007_Material #295_0.002",
			"primitives":[
				{
					"attributes":{
						"POSITION":24,
						"NORMAL":25,
						"TEXCOORD_0":26,
						"TEXCOORD_1":27,
						"TANGENT":28
					},
					"indices":18,
					"material":1
				}
			]
		},
		{
			"name":"defaultMaterial",
			"primitives":[
				{
					"attributes":{
						"POSITION":29,
						"NORMAL":30,
						"TEXCOORD_0":31,
						"TEXCOORD_1":32,
						"TANGENT":33
					},
					"indices":34,
					"material":2
				}
			]
		},
		{
			"name":"Plane",
			"primitives":[
				{
					"attributes":{
						"POSITION":35,
						"NORMAL":36,
						"TEXCOORD_0":37,
						"TANGENT":38
					},
					"indices":39,
					"material":3
				}
			]
		}
	],
	"textures":[
		{
			"sampler":0,
			"source":0
		},
		{
			"sampler":0,
			"source":1
		},
		{
			"sampler":0,
			"source":2
		},
		{
			"sampler":0,
			"source":0
		},
		{
			"sampler":0,
			"source":1
		},
		{
			"sampler":0,
			"source":3
		},
		{
			"sampler":0,
			"source":4
		},
		{
			"sampler":0,
			"source":5
		},
		{
			"sampler":0,
			"source":6
		}
	],
	"images":[
		{
			"mimeType":"image/png",
			"name":"Material_294_normal",
			"uri":"textures/Material_294_normal.png"
		},
		{
			"mimeType":"image/png",
			"name":"Material_294_metallicRoughness",
			"uri":"textures/Material_294_metallicRoughness.png"
		},
		{
			"mimeType":"image/png",
			"name":"Material_294_baseColor",
			"uri":"textures/Material_294_baseColor.png"
		},
		{
			"mimeType":"image/png",
			"name":"Material_295_baseColor",
			"uri":"textures/Material_295_baseColor.png"
		},
		{
			"mimeType":"image/png",
			"name":"ussr_statue_lenin_classic_bronze_1952_a_normal",
			"uri":"textures/ussr_statue_lenin_classic_bronze_1952_a_normal.png"
		},
		{
			"mimeType":"image/png",
			"name":"ussr_statue_lenin_classic_bronze_1952_a_metallicRoughness",
			"uri":"textures/ussr_statue_lenin_classic_bronze_1952_a_metallicRoughness.png"
		},
		{
			"mimeType":"image/jpeg",
			"name":"ussr_statue_lenin_classic_bronze_1952_a_baseColor",
			"uri":"textures/ussr_statue_lenin_classic_bronze_1952_a_baseColor.jpg"
		}
	],
	"accessors":[
		{
			"bufferView":0,
			"componentType":5126,
			"count":3033,
			"max":[
				129.85162353515625,
				390.18011474609375,
				189.60618591308594
			],
			"min":[
				-130.06381225585938,
				-333.3890380859375,
				5.686756134033203
			],
			"type":"VEC3"
		},
		{
			"bufferView":1,
			"componentType":5126,
			"count":3033,
			"type":"VEC3"
		},
		{
			"bufferView":2,
			"componentType":5126,
			"count":3033,
			"type":"VEC2"
		},
		{
			"bufferView":3,
			"componentType":5126,
			"count":3033,
			"type":"VEC4"
		},
		{
			"bufferView":4,
			"componentType":5123,
			"count":9252,
			"type":"SCALAR"
		},
		{
			"bufferView":5,
			"componentType":5126,
			"count":3033,
			"max":[
				129.85162353515625,
				390.18011474609375,
				189.60618591308594
			],
			"min":[
				-130.06381225585938,
				-333.3890380859375,
				5.686756134033203
			],
			"type":"VEC3"
		},
		{
			"bufferView":6,
			"componentType":5126,
			"count":3033,
			"type":"VEC3"
		},
		{
			"bufferView":7,
			"componentType":5126,
			"count":3033,
			"type":"VEC2"
		},
		{
			"bufferView":8,
			"componentType":5126,
			"count":3033,
			"type":"VEC4"
		},
		{
			"bufferView":9,
			"componentType":5126,
			"count":3033,
			"max":[
				129.85162353515625,
				390.18011474609375,
				189.60618591308594
			],
			"min":[
				-130.06381225585938,
				-333.3890380859375,
				5.686756134033203
			],
			"type":"VEC3"
		},
		{
			"bufferView":10,
			"componentType":5126,
			"count":3033,
			"type":"VEC3"
		},
		{
			"bufferView":11,
			"componentType":5126,
			"count":3033,
			"type":"VEC2"
		},
		{
			"bufferView":12,
			"componentType":5126,
			"count":3033,
			"type":"VEC4"
		},
		{
			"bufferView":13,
			"componentType":5126,
			"count":62,
			"max":[
				104.2876968383789,
				246.09225463867188,
				175.285400390625
			],
			"min":[
				-104.49987030029297,
				-133.18006896972656,
				122.31787109375
			],
			"type":"VEC3"
		},
		{
			"bufferView":14,
			"componentType":5126,
			"count":62,
			"type":"VEC3"
		},
		{
			"bufferView":15,
			"componentType":5126,
			"count":62,
			"type":"VEC2"
		},
		{
			"bufferView":16,
			"componentType":5126,
			"count":62,
			"type":"VEC2"
		},
		{
			"bufferView":17,
			"componentType":5126,
			"count":62,
			"type":"VEC4"
		},
		{
			"bufferView":18,
			"componentType":5123,
			"count":138,
			"type":"SCALAR"
		},
		{
			"bufferView":19,
			"componentType":5126,
			"count":62,
			"max":[
				104.2876968383789,
				246.09225463867188,
				175.285400390625
			],
			"min":[
				-104.49987030029297,
				-133.18006896972656,
				122.31787109375
			],
			"type":"VEC3"
		},
		{
			"bufferView":20,
			"componentType":5126,
			"count":62,
			"type":"VEC3"
		},
		{
			"bufferView":21,
			"componentType":5126,
			"count":62,
			"type":"VEC2"
		},
		{
			"bufferView":22,
			"componentType":5126,
			"count":62,
			"type":"VEC2"
		},
		{
			"bufferView":23,
			"componentType":5126,
			"count":62,
			"type":"VEC4"
		},
		{
			"bufferView":24,
			"componentType":5126,
			"count":62,
			"max":[
				104.2876968383789,
				246.09225463867188,
				175.285400390625
			],
			"min":[
				-104.49987030029297,
				-133.18006896972656,
				122.31787109375
			],
			"type":"VEC3"
		},
		{
			"bufferView":25,
			"componentType":5126,
			"count":62,
			"type":"VEC3"
		},
		{
			"bufferView":26,
			"componentType":5126,
			"count":62,
			"type":"VEC2"
		},
		{
			"bufferView":27,
			"componentType":5126,
			"count":62,
			"type":"VEC2"
		},
		{
			"bufferView":28,
			"componentType":5126,
			"count":62,
			"type":"VEC4"
		},
		{
			"bufferView":29,
			"componentType":5126,
			"count":11684,
			"max":[
				70.7646255493164,
				81.99784851074219,
				399.5149841308594
			],
			"min":[
				-70.62409210205078,
				-74.64747619628906,
				-0.008605999872088432
			],
			"type":"VEC3"
		},
		{
			"bufferView":30,
			"componentType":5126,
			"count":11684,
			"type":"VEC3"
		},
		{
			"bufferView":31,
			"componentType":5126,
			"count":11684,
			"type":"VEC2"
		},
		{
			"bufferView":32,
			"componentType":5126,
			"count":11684,
			"type":"VEC2"
		},
		{
			"bufferView":33,
			"componentType":5126,
			"count":11684,
			"type":"VEC4"
		},
		{
			"bufferView":34,
			"componentType":5123,
			"count":62334,
			"type":"SCALAR"
		},
		{
			"bufferView":35,
			"componentType":5126,
			"count":4,
			"max":[
				1,
				0,
				1
			],
			"min":[
				-1,
				0,
				-1
			],
			"type":"VEC3"
		},
		{
			"bufferView":36,
			"componentType":5126,
			"count":4,
			"type":"VEC3"
		},
		{
			"bufferView":37,
			"componentType":5126,
			"count":4,
			"type":"VEC2"
		},
		{
			"bufferView":38,
			"componentType":5126,
			"count":4,
			"type":"VEC4"
		},
		{
			"bufferView":39,
			"componentType":5123,
			"count":6,
			"type":"SCALAR"
		}
	],
	"bufferViews":[
		{
			"buffer":0,
			"byteLength":36396,
			"byteOffset":0,
			"target":34962
		},
		{
			"buffer":0,
			"byteLength":36396,
			"byteOffset":36396,
			"target":34962
		},
		{
			"buffer":0,
			"byteLength":24264,
			"byteOffset":72792,
			"target":34962
		},
		{
			"buffer":0,
			"byteLength":48528,
			"byteOffset":97056,
			"target":34962
		},
		{
			"buffer":0,
			"byteLength":18504,
			"byteOffset":145584,
			"target":34963
		},
		{
			"buffer":0,
			"byteLength":36396,
			"byteOffset":164088,
			"target":34962
		},
		{
			"buffer":0,
			"byteLength":36396,
			"byteOffset":200484,
			"target":34962
		},
		{
			"buffer":0,
			"byteLength":24264,
			"byteOffset":236880,
			"target":34962
		},
		{
			"buffer":0,
			"byteLength":48528,
			"byteOffset":261144,
			"target":34962
		},
		{
			"buffer":0,
			"byteLength":36396,
			"byteOffset":309672,
			"target":34962
		},
		{
			"buffer":0,
			"byteLength":36396,
			"byteOffset":346068,
			"target":34962
		},
		{
			"buffer":0,
			"byteLength":24264,
			"byteOffset":382464,
			"target":34962
		},
		{
			"buffer":0,
			"byteLength":48528,
			"byteOffset":406728,
			"target":34962
		},
		{
			"buffer":0,
			"byteLength":744,
			"byteOffset":455256,
			"target":34962
		},
		{
			"buffer":0,
			"byteLength":744,
			"byteOffset":456000,
			"target":34962
		},
		{
			"buffer":0,
			"byteLength":496,
			"byteOffset":456744,
			"target":34962
		},
		{
			"buffer":0,
			"byteLength":496,
			"byteOffset":457240,
			"target":34962
		},
		{
			"buffer":0,
			"byteLength":992,
			"byteOffset":457736,
			"target":34962
		},
		{
			"buffer":0,
			"byteLength":276,
			"byteOffset":458728,
			"target":34963
		},
		{
			"buffer":0,
			"byteLength":744,
			"byteOffset":459004,
			"target":34962
		},
		{
			"buffer":0,
			"byteLength":744,
			"byteOffset":459748,
			"target":34962
		},
		{
			"buffer":0,
			"byteLength":496,
			"byteOffset":460492,
			"target":34962
		},
		{
			"buffer":0,
			"byteLength":496,
			"byteOffset":460988,
			"target":34962
		},
		{
			"buffer":0,
			"byteLength":992,
			"byteOffset":461484,
			"target":34962
		},
		{
			"buffer":0,
			"byteLength":744,
			"byteOffset":462476,
			"target":34962
		},
		{
			"buffer":0,
			"byteLength":744,
			"byteOffset":463220,
			"target":34962
		},
		{
			"buffer":0,
			"byteLength":496,
			"byteOffset":463964,
			"target":34962
		},
		{
			"buffer":0,
			"byteLength":496,
			"byteOffset":464460,
			"target":34962
		},
		{
			"buffer":0,
			"byteLength":992,
			"byteOffset":464956,
			"target":34962
		},
		{
			"buffer":0,
			"byteLength":140208,
			"byteOffset":465948,
			"target":34962
		},
		{
			"buffer":0,
			"byteLength":140208,
			"byteOffset":606156,
			"target":34962
		},
		{
			"buffer":0,
			"byteLength":93472,
			"byteOffset":746364,
			"target":34962
		},
		{
			"buffer":0,
			"byteLength":93472,
			"byteOffset":839836,
			"target":34962
		},
		{
			"buffer":0,
			"byteLength":186944,
			"byteOffset":933308,
			"target":34962
		},
		{
			"buffer":0,
			"byteLength":124668,
			"byteOffset":1120252,
			"target":34963
		},
		{
			"buffer":0,
			"byteLength":48,
			"byteOffset":1244920,
			"target":34962
		},
		{
			"buffer":0,
			"byteLength":48,
			"byteOffset":1244968,
			"target":34962
		},
		{
			"buffer":0,
			"byteLength":32,
			"byteOffset":1245016,
			"target":34962
		},
		{
			"buffer":0,
			"byteLength":64,
			"byteOffset":1245048,
			"target":34962
		},
		{
			"buffer":0,
			"byteLength":12,
			"byteOffset":1245112,
			"target":34963
		}
	],
	"samplers":[
		{
			"magFilter":9729,
			"minFilter":9987
		}
	],
	"buffers":[
		{
			"byteLength":1245124,
			"uri":"untitled.bin"
		}
	]
}
